<?xml version="1.0" encoding="utf-8"?>
<!-- Generator: Adobe Illustrator 16.0.5, SVG Export Plug-In . SVG Version: 6.00 Build 0)  -->
<!DOCTYPE svg PUBLIC "-//W3C//DTD SVG 1.1//EN" "http://www.w3.org/Graphics/SVG/1.1/DTD/svg11.dtd">
<svg version="1.1" id="Layer_1" xmlns="http://www.w3.org/2000/svg" xmlns:xlink="http://www.w3.org/1999/xlink">
<path fill="#D2D2D7" d="M189.389,280.533c-0.719,5.773-1.093,11.654-1.093,17.623c0,77.988,63.221,141.208,141.209,141.208
	c77.987,0,141.208-63.22,141.208-141.208c0-5.969-0.374-11.85-1.094-17.624c-37.341-32.967-86.386-52.981-140.113-52.981
	C275.777,227.55,226.731,247.565,189.389,280.533z"/>
<path fill="#F05123" d="M200.004,284.568c36.639,30.79,78.412,49.326,129.861,49.326c51.448,0,93.222-18.536,129.86-49.326
	c-36.639-30.791-78.963-49.326-130.411-49.326C277.865,235.243,236.643,253.777,200.004,284.568z"/>
<g>
	<g>
		<path fill="#E1C165" d="M307.95,307.249c-2.545,0.296-4.962-2.339-7.413-7.906c-0.935-2.124-2.682-10.624-3.906-11.283
			c-0.815-0.439-6.786,2.174-11.429,4.142c-4.498,1.859-6.721,2.853-11.112,4.968c-0.88,3.611-2.324,9.312-4.577,16.184
			c-0.526,1.606-1.629,2.712-3.093,3.227c-1.065,0.375-2.085,0.37-3.071-0.019c-0.987-0.388-1.596-1.095-1.82-2.129
			c-0.251-1.155,4.666-11.751,3.482-15.448c-0.101-0.315-0.985-1.11-1.149-1.934c-0.39-1.96,2.168-3.685,3.465-5.176
			c2.828-3.253,5.514-13.532,9.851-21.706c5.911-11.139,10.273-16.71,12.144-17.055c2.547-0.469,4.432,0.614,5.617,3.196
			c1.68,4.812,2.5,7.225,4.101,12.065c3.659,9.961,5.391,14.981,8.66,25.082c1.144,2.251,1.706,3.379,2.815,5.646
			c0.942,1.938,1.424,3.249,1.461,3.922c0.06,1.073-0.328,2.011-1.146,2.82S309.057,307.121,307.95,307.249z M288.506,267.105
			c-4.542,7.882-6.676,11.888-10.662,19.984c3.424-1.685,8.691-3.944,15.93-6.336C291.725,275.271,290.67,272.54,288.506,267.105z"
			/>
		<path fill="#E1C165" d="M349.96,296.507c0.036-1.047,0.49-1.864,1.382-2.433c0.891-0.569,1.963-0.781,3.202-0.628
			c1.413,0.174,2.6,1.047,3.544,2.583c1.288,2.095,2.468,3.584,3.531,4.43c2.245,1.783,5.641,3.073,10.146,4.06
			c4.312,0.944,8.404,1.145,12.355,0.559c5.054-0.75,7.979-2.833,8.683-6.547c0.579-3.059-1.009-6.171-4.833-9.171
			c-3.248-2.548-7.547-4.575-12.774-5.888c-4.646-1.167-8.572-2.767-11.758-4.871c-4.08-2.695-6.043-5.837-5.755-9.596
			c0.34-4.43,3.8-8.164,10.591-10.661c6.473-2.38,13.155-2.687,19.704-0.939c3.081,0.822,6.492,2.231,10.165,4.245
			c4.871,2.67,7.094,4.937,6.759,6.554c-0.439,2.125-2.03,2.68-4.785,1.752c-1.225-0.413-3.312-1.389-6.311-2.849
			c-2.999-1.46-5.38-2.37-7.094-2.804c-4.867-1.233-9.182-1.232-12.812-0.077c-3.73,1.187-5.709,3.216-5.996,5.941
			c-0.217,2.057,1.92,3.871,6.28,5.67c1.622,0.669,4.817,1.653,9.497,3.169c6.783,2.198,11.774,5.711,14.893,10.082
			c2.851,3.996,3.763,8.049,2.89,12.066c-1.244,5.726-5.262,9.082-11.858,10.601c-5.727,1.319-11.903,1.138-18.764-0.363
			c-4.982-1.09-9.471-2.75-13.534-5.094C352.334,303.427,349.832,300.247,349.96,296.507z"/>
	</g>
</g>
</svg>
